<?xml version="1.0" encoding="utf-8"?>
<!-- Generator: Adobe Illustrator 19.2.1, SVG Export Plug-In . SVG Version: 6.00 Build 0)  -->
<svg version="1.1" id="Layer_2" xmlns="http://www.w3.org/2000/svg" xmlns:xlink="http://www.w3.org/1999/xlink" x="0px" y="0px"
	 viewBox="0 0 16 16" style="enable-background:new 0 0 16 16;" xml:space="preserve">
<g>
	<path d="M15.189,9.218V8.37c0-0.077-0.042-0.091-0.107-0.091H14.68c-0.045,0-0.051,0.027-0.051,0.08v0.133
		c0,0.042-0.028,0.035-0.078-0.016c-0.059-0.059-0.222-0.247-0.675-0.247c-0.486,0-0.66,0.162-0.795,0.314
		c-0.135,0.152-0.329,0.513-0.151,0.881c0.178,0.368,0.715,0.443,0.905,0.483c0.225,0.047,0.552,0.166,0.454,0.347
		c-0.098,0.181-0.406,0.131-0.584,0.074c-0.178-0.057-0.271-0.218-0.282-0.259c-0.014-0.05-0.066-0.093-0.135-0.093h-0.456
		c-0.081,0-0.1,0.043-0.1,0.101v0.834c0,0.056,0.011,0.096,0.073,0.096h0.461c0.061,0,0.071-0.027,0.071-0.069
		c0-0.042-0.002-0.091-0.002-0.136s0.026-0.061,0.067-0.02c0.041,0.041,0.275,0.178,0.535,0.219c0.26,0.041,0.603,0.047,0.829-0.079
		c0.226-0.125,0.406-0.274,0.444-0.577c0.042-0.331-0.077-0.624-0.469-0.759c-0.392-0.136-0.767-0.214-0.901-0.29
		c-0.152-0.087-0.18-0.331,0.035-0.391c0.193-0.053,0.358,0.005,0.475,0.072c0.098,0.056,0.147,0.183,0.156,0.236
		c0.009,0.053,0.016,0.111,0.096,0.111h0.48C15.159,9.327,15.189,9.296,15.189,9.218 M13.018,7.934c0,0,0.51-1.191-0.249-1.191
		h-0.656c-0.125,0-0.118,0.123-0.118,0.123s-0.001,0.508-0.001,0.575c0,0.061-0.018,0.135,0.127,0.135h0.502
		C12.978,7.576,13.018,7.934,13.018,7.934 M12.645,8.261h-1.329c-0.076,0-0.083,0.029-0.083,0.101v0.525
		c0,0.057,0.018,0.083,0.086,0.083h0.101c0.044,0,0.098,0.003,0.071,0.074s-0.362,1.136-0.38,1.193
		c-0.018,0.056-0.15,0.05-0.174-0.009c-0.024-0.059-0.3-1.136-0.315-1.19c-0.015-0.053-0.009-0.056,0.042-0.056
		c0.051,0,0.139,0.012,0.139-0.065v-0.57c0-0.065-0.007-0.086-0.083-0.086H9.53c-0.099,0-0.089,0.053-0.089,0.112v0.522
		c0,0.067,0.024,0.086,0.083,0.086h0.119c0.045,0,0.083-0.009,0.11,0.071c0.027,0.08,0.552,1.599,0.611,1.789
		c0.059,0.19,0.248,0.172,0.363,0.172c0.101,0,0.152-0.001,0.135,0.06c-0.018,0.062-0.098,0.355-0.199,0.432
		c-0.101,0.077-0.267,0.089-0.38,0.042c-0.113-0.047-0.239-0.163-0.263-0.182c-0.024-0.019-0.056-0.016-0.086,0.022
		c-0.03,0.039-0.248,0.314-0.311,0.403c-0.063,0.089-0.047,0.095,0.009,0.148c0.056,0.053,0.357,0.35,0.935,0.35
		c0.617,0,0.843-0.507,0.949-0.788c0.107-0.28,0.853-2.333,0.879-2.428c0.027-0.095,0.056-0.098,0.107-0.098h0.154
		c0.06,0,0.074-0.027,0.074-0.092V8.347C12.731,8.281,12.712,8.261,12.645,8.261 M11.153,7.49c-0.006-2.061-0.309-3.626-0.877-4.796
		C9.799,1.714,9.15,1.152,8.493,1.152C7.743,1.154,7.515,1.767,7.499,2.091C7.487,2.373,7.645,2.686,7.798,2.989
		c0.119,0.234,0.23,0.455,0.224,0.598C8.021,3.628,7.99,3.741,7.909,3.741c-0.077,0-0.277-0.323-0.408-0.537
		C7.193,2.707,6.811,2.088,6.33,2.088c-0.156,0-0.71,0.085-1.303,1.173C4.53,4.173,4.235,5.458,4.034,7.485
		c0.003,0.032,0.024,0.092,0.08,0.092h0.603c0.072,0,0.098-0.051,0.102-0.079c0.138-1.168,0.214-1.9,0.373-2.538
		c0.38-1.523,0.924-1.943,1.072-1.943c0.184,0,0.364,0.298,0.555,0.614C6.846,3.675,6.874,3.72,6.902,3.766
		c0.247,0.403,0.551,0.833,1.024,0.833c0.484-0.001,0.845-0.491,0.866-0.93c0.021-0.476-0.186-0.83-0.337-1.088
		C8.369,2.433,8.294,2.305,8.298,2.215c0.006-0.142,0.105-0.172,0.186-0.172c0.278,0,0.744,0.289,1.145,1.103
		c0.626,1.273,0.759,3,0.76,4.346c0.004,0.029,0.031,0.084,0.102,0.084h0.574C11.128,7.577,11.15,7.521,11.153,7.49 M3.88,10.943
		v-0.534c0-0.04-0.039-0.099-0.105-0.099c-0.024,0-0.138-0.001-0.159-0.001c-0.113,0-0.139-0.104-0.139-0.104L2.393,7.294
		c0,0-0.026-0.12-0.13-0.22c-0.104-0.101-0.342-0.1-0.342-0.1H0.979c-0.051,0-0.089,0.044-0.089,0.084
		c0,0.04-0.003,0.482-0.003,0.53s0.024,0.095,0.111,0.095h0.233c0.076,0,0.074,0.056,0.042,0.115
		c-0.033,0.059-0.929,2.426-0.94,2.45c-0.034,0.072-0.081,0.062-0.081,0.062H0.074C-0.005,10.309,0,10.386,0,10.386v0.538
		c0,0,0,0.095,0.092,0.095h1.335c0.086,0,0.088-0.023,0.088-0.083V10.38c0-0.062-0.035-0.071-0.091-0.071H1.186
		c-0.071,0-0.091-0.046-0.078-0.089c0.005-0.017,0.082-0.237,0.106-0.299c0.024-0.062,0.036-0.065,0.104-0.065l1.043-0.002
		c0.11,0,0.116,0.033,0.131,0.071c0.015,0.039,0.072,0.198,0.086,0.237c0.04,0.113,0.003,0.147-0.045,0.147H2.298
		c-0.036,0-0.086,0.019-0.086,0.083v0.562c0,0.045,0.021,0.065,0.095,0.065h1.507C3.861,11.019,3.88,10.972,3.88,10.943 M2.18,9.245
		L1.576,9.247c-0.089,0-0.079-0.053-0.064-0.088c0.015-0.036,0.273-0.815,0.291-0.866c0.018-0.05,0.068-0.083,0.098-0.012
		c0.029,0.071,0.306,0.83,0.324,0.872C2.242,9.195,2.239,9.245,2.18,9.245 M6.274,7.058v0.57c0,0.04,0.02,0.058,0.075,0.058h0.108
		c0.076,0,0.08,0.022,0.08,0.102v2.412c0,0.107-0.009,0.11-0.085,0.11H6.296c-0.083,0-0.093,0.028-0.093,0.099v0.516
		c0,0.075,0.031,0.095,0.107,0.095H7.23c0.081,0,0.089-0.033,0.089-0.086v-0.165c0-0.053,0.065-0.022,0.1,0.016
		c0.035,0.038,0.168,0.211,0.619,0.25c0.369,0.032,0.777-0.066,1.018-0.378c0.184-0.239,0.326-0.469,0.326-1.08
		c0-0.611-0.285-0.997-0.573-1.172C8.522,8.231,8.139,8.195,7.894,8.261C7.675,8.32,7.479,8.476,7.451,8.51
		c-0.027,0.033-0.08,0.059-0.08,0.003V7.068c0-0.074-0.033-0.095-0.079-0.095H6.348C6.279,6.973,6.274,7,6.274,7.058 M7.407,9.652
		c0-0.368,0.163-0.67,0.544-0.67c0.381,0,0.544,0.311,0.544,0.691c0,0.38-0.237,0.623-0.561,0.623
		C7.612,10.296,7.407,10.019,7.407,9.652 M4.29,10.243c0,0,0.006,0.066-0.037,0.066H4.101c-0.066,0-0.065,0.036-0.065,0.064v0.585
		c0,0-0.008,0.061,0.077,0.061h1.296c0.042,0,0.08-0.024,0.08-0.086v-0.555c0-0.059-0.003-0.077-0.077-0.077H5.292
		c-0.056,0-0.092,0.003-0.092-0.053V9.794c0-0.202,0.07-0.325,0.175-0.43c0.105-0.105,0.308-0.223,0.512-0.241
		C6.08,9.107,6.167,9.128,6.252,9.136c0.053,0.005,0.083-0.02,0.083-0.062V8.32c0-0.045-0.012-0.088-0.104-0.098
		c-0.092-0.01-0.462,0.039-0.743,0.231C5.244,8.62,5.138,8.898,5.117,8.928C5.096,8.958,5.061,8.97,5.061,8.919V8.358
		c0-0.056-0.019-0.098-0.086-0.098H4.112c-0.053,0-0.077,0.001-0.077,0.073V8.91c0,0.059,0.059,0.059,0.059,0.059
		s0.068,0.003,0.122,0.003c0.053,0,0.074,0.015,0.074,0.077L4.29,10.243L4.29,10.243z M2.481,12.862
		c-0.013,0.299,0.1,0.575,0.335,0.821c0.359,0.375,1.018,0.683,1.903,0.889c0.764,0.178,1.679,0.276,2.575,0.276h0.033
		c1.088-0.003,2.658-0.122,3.96-0.666c0.928-0.388,1.427-0.867,1.495-1.419c0.049-0.396-0.056-0.746-0.54-0.977
		c0,0-0.04-0.004-0.062,0.036c-0.095,0.168-0.188,0.32-0.324,0.497c-0.051,0.066,0.009,0.113,0.009,0.113
		c0.174,0.135,0.195,0.317,0.05,0.49c-0.128,0.153-0.312,0.367-1.077,0.671c-0.631,0.25-1.744,0.55-3.461,0.555l-0.034,0
		c-1.998,0-3.504-0.481-3.958-0.957c-0.095-0.1-0.141-0.196-0.137-0.286c0.012-0.285,0.408-0.443,1.114-0.446h0.012
		c0.191,0,0.382,0.013,0.571,0.035c0.142,0.017,0.278,0.039,0.41,0.064c0.303,0.058,0.597,0.137,0.873,0.226v-0.001
		c0.399,0.131,0.71,0.27,0.918,0.358c0.12,0.051,0.199,0.084,0.243,0.097c0.069,0.021,0.135,0.03,0.195,0.026l0.003,0
		c0.168-0.011,0.299-0.124,0.332-0.288c0.029-0.142-0.014-0.296-0.178-0.372c-0.431-0.2-1.198-0.521-2.105-0.728
		c-0.254-0.06-0.508-0.107-0.755-0.137c-0.001,0-0.003,0-0.004-0.001l0,0C4.687,11.715,4.5,11.702,4.32,11.702H4.31
		C3.213,11.705,2.512,12.15,2.481,12.862"/>
	<g>
		<g>
			<path d="M15.708,8.25c-0.162,0-0.294,0.131-0.294,0.295c0,0.161,0.131,0.292,0.292,0.292C15.868,8.836,16,8.704,16,8.541
				C16,8.38,15.869,8.25,15.708,8.25z M15.706,8.776c-0.129,0-0.231-0.102-0.231-0.233c0-0.131,0.102-0.233,0.232-0.233
				c0.13,0,0.231,0.102,0.231,0.233C15.939,8.673,15.837,8.776,15.706,8.776z"/>
			<path d="M15.588,8.385h0.132c0.04,0,0.071,0.011,0.092,0.032c0.016,0.016,0.025,0.039,0.025,0.065v0.002
				c0,0.048-0.026,0.078-0.064,0.092l0.072,0.106h-0.076l-0.063-0.095h-0.002h-0.05v0.095h-0.065L15.588,8.385L15.588,8.385z
				 M15.718,8.53c0.033,0,0.051-0.018,0.051-0.042V8.486c0-0.028-0.02-0.043-0.052-0.043h-0.064V8.53L15.718,8.53L15.718,8.53z"/>
		</g>
	</g>
</g>
</svg>
