<?xml version="1.0" encoding="utf-8"?>
<!-- Generator: Adobe Illustrator 19.2.1, SVG Export Plug-In . SVG Version: 6.00 Build 0)  -->
<svg version="1.1" id="Layer_1" xmlns="http://www.w3.org/2000/svg" xmlns:xlink="http://www.w3.org/1999/xlink" x="0px" y="0px"
	 viewBox="0 0 16 16" style="enable-background:new 0 0 16 16;" xml:space="preserve">
<path d="M6.891,1.109v11.246L3.69,9.387C3.241,8.971,2.54,8.998,2.123,9.447c-0.416,0.449-0.39,1.15,0.059,1.567l5.063,4.694
	c0.017,0.016,0.037,0.027,0.056,0.042c0.03,0.024,0.06,0.048,0.091,0.069c0.03,0.02,0.061,0.037,0.093,0.054
	c0.032,0.017,0.065,0.033,0.098,0.047c0.034,0.014,0.068,0.024,0.102,0.035c0.034,0.01,0.067,0.019,0.102,0.026
	c0.035,0.007,0.071,0.011,0.106,0.014C7.93,15.997,7.965,16,8,16c0.035,0,0.07-0.003,0.105-0.006
	c0.036-0.003,0.071-0.007,0.106-0.014c0.035-0.007,0.068-0.016,0.102-0.026c0.035-0.01,0.069-0.021,0.102-0.035
	c0.034-0.014,0.066-0.03,0.099-0.047c0.031-0.017,0.062-0.033,0.092-0.053c0.032-0.021,0.062-0.045,0.092-0.07
	c0.018-0.015,0.037-0.025,0.055-0.041l5.063-4.694c0.236-0.219,0.355-0.516,0.355-0.813c0-0.27-0.098-0.54-0.296-0.754
	c-0.417-0.449-1.118-0.476-1.567-0.059l-3.201,2.967V1.109C9.109,0.496,8.612,0,8,0C7.388,0,6.891,0.496,6.891,1.109z"/>
</svg>
