<?xml version="1.0" encoding="utf-8"?>
<!-- Generator: Adobe Illustrator 19.2.1, SVG Export Plug-In . SVG Version: 6.00 Build 0)  -->
<svg version="1.1" id="Layer_1" xmlns="http://www.w3.org/2000/svg" xmlns:xlink="http://www.w3.org/1999/xlink" x="0px" y="0px"
	 viewBox="0 0 16 16" style="enable-background:new 0 0 16 16;" xml:space="preserve">
<path d="M1.109,9.109h11.246L9.387,12.31c-0.416,0.449-0.39,1.151,0.059,1.567c0.449,0.416,1.15,0.39,1.567-0.059l4.694-5.063
	c0.016-0.017,0.027-0.037,0.042-0.056c0.024-0.03,0.048-0.06,0.069-0.091c0.02-0.03,0.037-0.061,0.054-0.093
	c0.017-0.032,0.033-0.065,0.047-0.098c0.014-0.034,0.024-0.068,0.035-0.102c0.01-0.034,0.019-0.067,0.026-0.102
	c0.007-0.035,0.011-0.071,0.014-0.106C15.997,8.07,16,8.035,16,8c0-0.035-0.003-0.07-0.006-0.105
	c-0.003-0.036-0.007-0.071-0.014-0.106c-0.007-0.035-0.016-0.068-0.026-0.102c-0.01-0.035-0.021-0.069-0.035-0.102
	c-0.014-0.034-0.03-0.066-0.047-0.099c-0.017-0.031-0.033-0.062-0.053-0.092c-0.021-0.032-0.045-0.062-0.07-0.092
	c-0.015-0.018-0.025-0.037-0.041-0.055l-4.694-5.063c-0.219-0.236-0.516-0.355-0.813-0.355c-0.27,0-0.54,0.098-0.754,0.296
	C8.998,2.54,8.971,3.241,9.387,3.69l2.967,3.201H1.109C0.496,6.891,0,7.388,0,8C0,8.612,0.496,9.109,1.109,9.109z"/>
</svg>
