<?xml version="1.0" encoding="utf-8"?>
<!-- Generator: Adobe Illustrator 19.2.1, SVG Export Plug-In . SVG Version: 6.00 Build 0)  -->
<svg version="1.1" id="Layer_1" xmlns="http://www.w3.org/2000/svg" xmlns:xlink="http://www.w3.org/1999/xlink" x="0px" y="0px"
	 viewBox="0 0 16 16" style="enable-background:new 0 0 16 16;" xml:space="preserve">
<path d="M9.109,14.891V3.645l3.201,2.967c0.449,0.416,1.151,0.39,1.567-0.059c0.416-0.449,0.39-1.15-0.059-1.567L8.754,0.292
	C8.736,0.276,8.716,0.265,8.698,0.25c-0.03-0.024-0.06-0.048-0.091-0.069c-0.03-0.02-0.061-0.037-0.093-0.054
	C8.482,0.111,8.449,0.095,8.416,0.081C8.382,0.067,8.348,0.057,8.314,0.046C8.28,0.036,8.246,0.027,8.212,0.02
	C8.176,0.013,8.141,0.009,8.105,0.006C8.07,0.003,8.035,0,8,0C7.965,0,7.93,0.003,7.895,0.006C7.859,0.009,7.824,0.013,7.789,0.02
	C7.754,0.027,7.72,0.036,7.687,0.046c-0.035,0.01-0.069,0.021-0.102,0.035c-0.034,0.014-0.066,0.03-0.099,0.047
	C7.454,0.145,7.423,0.162,7.393,0.181c-0.032,0.021-0.062,0.045-0.092,0.07C7.283,0.266,7.263,0.277,7.246,0.292L2.183,4.986
	C1.947,5.205,1.828,5.502,1.828,5.8c0,0.27,0.098,0.54,0.296,0.754C2.54,7.002,3.241,7.029,3.69,6.613l3.201-2.967v11.246
	C6.891,15.504,7.388,16,8,16C8.612,16,9.109,15.504,9.109,14.891z"/>
</svg>
