<?xml version="1.0" encoding="utf-8"?>
<!-- Generator: Adobe Illustrator 19.2.1, SVG Export Plug-In . SVG Version: 6.00 Build 0)  -->
<svg version="1.1" id="Layer_1" xmlns="http://www.w3.org/2000/svg" xmlns:xlink="http://www.w3.org/1999/xlink" x="0px" y="0px"
	 viewBox="0 0 16 16" style="enable-background:new 0 0 16 16;" xml:space="preserve">
<path d="M14.891,6.891H3.645L6.613,3.69c0.416-0.449,0.39-1.151-0.059-1.567c-0.449-0.416-1.15-0.39-1.567,0.059L0.292,7.246
	C0.276,7.264,0.265,7.284,0.25,7.302c-0.024,0.03-0.048,0.06-0.069,0.091c-0.02,0.03-0.037,0.061-0.054,0.093
	C0.111,7.518,0.095,7.551,0.081,7.584C0.067,7.618,0.057,7.652,0.046,7.686C0.036,7.72,0.027,7.754,0.02,7.788
	C0.013,7.824,0.009,7.859,0.006,7.895C0.003,7.93,0,7.965,0,8c0,0.035,0.003,0.07,0.006,0.105C0.009,8.141,0.013,8.176,0.02,8.211
	C0.027,8.246,0.036,8.28,0.046,8.313c0.01,0.035,0.021,0.069,0.035,0.102c0.014,0.034,0.03,0.066,0.047,0.099
	c0.017,0.031,0.033,0.062,0.053,0.092c0.021,0.032,0.045,0.062,0.07,0.092c0.015,0.018,0.025,0.037,0.041,0.055l4.694,5.063
	c0.219,0.236,0.516,0.355,0.813,0.355c0.27,0,0.54-0.098,0.754-0.296c0.449-0.417,0.476-1.118,0.059-1.567L3.645,9.109h11.246
	C15.504,9.109,16,8.612,16,8C16,7.388,15.504,6.891,14.891,6.891z"/>
</svg>
