<?xml version="1.0" encoding="utf-8"?>
<!-- Generator: Adobe Illustrator 19.2.1, SVG Export Plug-In . SVG Version: 6.00 Build 0)  -->
<svg version="1.1" id="Layer_1" xmlns="http://www.w3.org/2000/svg" xmlns:xlink="http://www.w3.org/1999/xlink" x="0px" y="0px"
	 viewBox="0 0 16 16" style="enable-background:new 0 0 16 16;" xml:space="preserve">
<g>
	<path d="M14.418,13.874H1.582C0.71,13.874,0,13.164,0,12.292v-7.1c0-0.839,0.656-1.527,1.483-1.579V3.184
		c0-0.192,0.155-0.347,0.347-0.347h1.972c0.192,0,0.347,0.155,0.347,0.347v0.425h0.641L6.17,2.228
		c0.065-0.065,0.153-0.102,0.245-0.102H9.58c0.092,0,0.18,0.037,0.245,0.102l1.381,1.381h3.207c0.869,0,1.581,0.709,1.587,1.58
		v7.103C16,13.164,15.29,13.874,14.418,13.874z M1.582,4.797c-0.221,0-0.394,0.173-0.394,0.394v7.1c0,0.221,0.173,0.394,0.394,0.394
		h12.831c0.221,0,0.394-0.173,0.394-0.394c0-0.019,0.001-0.037,0.004-0.055V5.191c0-0.221-0.173-0.394-0.394-0.394H1.582z"/>
	<path d="M7.998,11.971c-1.766,0-3.203-1.437-3.203-3.203c0-1.766,1.437-3.203,3.203-3.203c1.766,0,3.203,1.437,3.203,3.203
		C11.201,10.534,9.764,11.971,7.998,11.971z M7.998,6.669c-1.157,0-2.099,0.942-2.099,2.099c0,1.157,0.942,2.099,2.099,2.099
		c1.157,0,2.099-0.942,2.099-2.099C10.097,7.611,9.155,6.669,7.998,6.669z"/>
</g>
</svg>
