<?xml version="1.0" encoding="utf-8"?>
<!-- Generator: Adobe Illustrator 19.2.1, SVG Export Plug-In . SVG Version: 6.00 Build 0)  -->
<svg version="1.1" id="Layer_1" xmlns="http://www.w3.org/2000/svg" xmlns:xlink="http://www.w3.org/1999/xlink" x="0px" y="0px"
	 viewBox="0 0 16 16" style="enable-background:new 0 0 16 16;" xml:space="preserve">
<path d="M8,16c-4.416,0-8-3.584-8-8s3.584-8,8-8s8,3.584,8,8S12.416,16,8,16z M8,1.089C4.198,1.089,1.089,4.198,1.089,8
	c0,3.802,3.089,6.911,6.911,6.911S14.911,11.802,14.911,8C14.911,4.178,11.802,1.089,8,1.089z M7.683,10.871l3.584-5.089
	c0.178-0.257,0.119-0.594-0.139-0.772l0,0c-0.257-0.178-0.594-0.119-0.772,0.139L7.188,9.663L5.545,8.158
	C5.327,7.96,4.97,7.96,4.772,8.198l0,0C4.574,8.416,4.574,8.772,4.812,8.97l2.178,1.98C7.188,11.149,7.525,11.109,7.683,10.871z"/>
</svg>
