<?xml version="1.0" encoding="utf-8"?>
<!-- Generator: Adobe Illustrator 19.2.1, SVG Export Plug-In . SVG Version: 6.00 Build 0)  -->
<svg version="1.1" id="Layer_1" xmlns="http://www.w3.org/2000/svg" xmlns:xlink="http://www.w3.org/1999/xlink" x="0px" y="0px"
	 viewBox="0 0 16 16" style="enable-background:new 0 0 16 16;" xml:space="preserve">
<path d="M9.836,8l5.783-5.783c0.507-0.507,0.507-1.329,0-1.836c-0.507-0.507-1.329-0.507-1.836,0L8,6.164L2.217,0.381
	c-0.507-0.507-1.329-0.507-1.836,0s-0.507,1.329,0,1.836L6.164,8L0.38,13.783c-0.507,0.507-0.507,1.329,0,1.836
	C0.634,15.873,0.966,16,1.299,16c0.332,0,0.665-0.127,0.918-0.38L8,9.836l5.783,5.783c0.254,0.253,0.586,0.38,0.918,0.38
	c0.332,0,0.665-0.127,0.918-0.38c0.507-0.507,0.507-1.329,0-1.836L9.836,8z"/>
</svg>
