<?xml version="1.0" encoding="utf-8"?>
<!-- Generator: Adobe Illustrator 19.2.1, SVG Export Plug-In . SVG Version: 6.00 Build 0)  -->
<svg version="1.1" id="Layer_1" xmlns="http://www.w3.org/2000/svg" xmlns:xlink="http://www.w3.org/1999/xlink" x="0px" y="0px"
	 viewBox="0 0 16 16" style="enable-background:new 0 0 16 16;" xml:space="preserve">
<g>
	<path d="M15.849,7.676l-1.146-0.798l-2.044-3.24c-0.05-0.1-0.174-0.15-0.274-0.15H3.04v0.673h6.455v2.966
		c0,0.174,0.15,0.324,0.324,0.324h4.536l0.972,0.673v2.218h-0.573l-0.025-0.075c-0.199-0.773-0.897-1.321-1.695-1.321
		c-0.798,0-1.495,0.548-1.695,1.321l-0.025,0.075H7.95l-0.025-0.075c-0.199-0.772-0.897-1.32-1.694-1.32s-1.495,0.548-1.695,1.321
		l-0.025,0.075H3.04v0.673h1.445l0.025,0.075c0.174,0.822,0.897,1.421,1.72,1.421c0.847,0,1.57-0.598,1.72-1.421l0.025-0.075h3.315
		l0.025,0.075c0.174,0.822,0.897,1.421,1.72,1.421c0.847,0,1.57-0.598,1.72-1.421l0.025-0.075h0.897c0.174,0,0.324-0.15,0.324-0.324
		V7.975C15.999,7.85,15.949,7.751,15.849,7.676z M10.167,6.804V4.162h1.894l1.769,2.642H10.167z M6.231,11.838
		c-0.598,0-1.097-0.498-1.097-1.097c0-0.598,0.498-1.097,1.097-1.097s1.097,0.498,1.097,1.097
		C7.327,11.34,6.829,11.838,6.231,11.838z M13.033,11.838c-0.598,0-1.097-0.498-1.097-1.097c0-0.598,0.498-1.097,1.097-1.097
		c0.598,0,1.097,0.498,1.097,1.097C14.13,11.34,13.631,11.838,13.033,11.838z"/>
	<rect x="1.969" y="5.333" width="2.741" height="0.648"/>
	<rect y="7.128" width="3.539" height="0.648"/>
	<rect x="0.947" y="8.648" width="1.994" height="0.648"/>
</g>
</svg>
