<?xml version="1.0" encoding="utf-8"?>
<!-- Generator: Adobe Illustrator 19.2.1, SVG Export Plug-In . SVG Version: 6.00 Build 0)  -->
<svg version="1.1" id="Layer_1" xmlns="http://www.w3.org/2000/svg" xmlns:xlink="http://www.w3.org/1999/xlink" x="0px" y="0px"
	 viewBox="0 0 16 16" style="enable-background:new 0 0 16 16;" xml:space="preserve">
<path d="M15.54,2.977L13.053,0.49c-0.622-0.622-1.578-0.622-2.199-0.048l0,0l0,0L1.769,9.527L1.578,9.718L0,15.982l6.264-1.578
	l0.574-0.574l0,0l8.654-8.702l0,0l0,0C16.161,4.554,16.161,3.598,15.54,2.977z M2.247,10.388L5.69,13.83l-3.204,0.813l-1.004-1.052
	L2.247,10.388z M6.311,11.679l-1.96-1.96l6.503-6.503l1.96,1.96L6.311,11.679z"/>
</svg>
