<?xml version="1.0" encoding="utf-8"?>
<!-- Generator: Adobe Illustrator 19.2.1, SVG Export Plug-In . SVG Version: 6.00 Build 0)  -->
<svg version="1.1" id="Layer_1" xmlns="http://www.w3.org/2000/svg" xmlns:xlink="http://www.w3.org/1999/xlink" x="0px" y="0px"
	 viewBox="0 0 16 16" style="enable-background:new 0 0 16 16;" xml:space="preserve">
<path d="M15.836,13.807c-0.257-0.477-0.532-0.954-0.807-1.431C12.992,8.816,10.937,5.257,8.9,1.697
	C8.698,1.349,8.478,1.073,8.073,0.963c-0.092,0-0.183,0-0.275,0C7.781,0.982,7.744,0.982,7.707,1
	c-0.33,0.11-0.514,0.367-0.679,0.642c-2.092,3.67-4.165,7.339-6.239,11.009c-0.274,0.496-0.605,0.955-0.788,1.487
	c0,0.073,0,0.165,0,0.257c0.073,0.349,0.312,0.532,0.642,0.642c4.917,0,9.835,0,14.752,0c0.092-0.037,0.183-0.073,0.275-0.11
	c0.183-0.092,0.257-0.275,0.33-0.459c0-0.092,0-0.183,0-0.275C15.945,14.064,15.909,13.936,15.836,13.807z M8,13.239
	c-0.44-0.018-0.807-0.385-0.789-0.826c0-0.495,0.385-0.826,0.807-0.807c0.44,0,0.789,0.385,0.789,0.826S8.441,13.239,8,13.239z
	 M9.046,7.202C8.992,7.624,8.937,8.028,8.882,8.45s-0.11,0.826-0.165,1.248c-0.037,0.275-0.073,0.55-0.11,0.826
	c-0.037,0.257-0.147,0.459-0.385,0.569c-0.275,0.11-0.587,0-0.697-0.275c-0.092-0.202-0.11-0.422-0.147-0.642
	c-0.074-0.497-0.129-0.974-0.203-1.47C7.12,8.229,7.047,7.752,6.992,7.294c-0.037-0.275-0.055-0.532-0.11-0.807
	C6.753,5.972,7.084,5.532,7.451,5.33c0.734-0.422,1.56,0.11,1.688,0.789c0.018,0.055,0.018,0.11,0.018,0.202
	C9.12,6.596,9.083,6.908,9.046,7.202z"/>
</svg>
