<?xml version="1.0" encoding="utf-8"?>
<!-- Generator: Adobe Illustrator 19.2.1, SVG Export Plug-In . SVG Version: 6.00 Build 0)  -->
<svg version="1.1" id="Layer_1" xmlns="http://www.w3.org/2000/svg" xmlns:xlink="http://www.w3.org/1999/xlink" x="0px" y="0px"
	 viewBox="0 0 16 16" style="enable-background:new 0 0 16 16;" xml:space="preserve">
<g id="XMLID_2_">
	<g id="XMLID_3_">
		<g id="XMLID_4_">
			<g id="XMLID_5_">
				<path d="M15.268,15.755H8.693c-0.419,0-0.772-0.353-0.772-0.772V13.13c0-0.419,0.353-0.772,0.772-0.772h0.949l-0.441-1.567
					H6.112l-0.485,1.567h1.015c0.419,0,0.772,0.353,0.772,0.772v1.853c0,0.419-0.353,0.772-0.772,0.772H0.772
					C0.353,15.755,0,15.402,0,14.983V13.13c0-0.419,0.353-0.772,0.772-0.772H1.92l2.559-8.715H3.464
					c-0.419,0-0.772-0.353-0.772-0.772V1.017c0-0.419,0.353-0.772,0.772-0.772H9.62c0.375,0,0.728,0.265,0.838,0.618l0.794,2.449
					l2.868,9.046h1.103c0.419,0,0.772,0.353,0.772,0.772v1.853C16.04,15.402,15.687,15.755,15.268,15.755z M8.87,14.829h6.222
					v-1.522h-0.971c-0.375,0-0.728-0.265-0.838-0.618l-3.045-9.642L9.642,1.193H3.685v1.522h1.169c0.243,0,0.441,0.11,0.574,0.287
					S5.582,3.4,5.516,3.62l-2.67,9.068c-0.088,0.353-0.441,0.618-0.838,0.618H0.971v1.522h5.538v-1.522H5.339
					c-0.221,0-0.441-0.11-0.574-0.287c-0.132-0.177-0.154-0.397-0.088-0.618l0.596-1.92c0.11-0.353,0.463-0.618,0.838-0.618h3.155
					c0.375,0,0.75,0.287,0.838,0.64l0.53,1.92c0.066,0.243,0.022,0.463-0.11,0.618c-0.132,0.177-0.331,0.265-0.552,0.265H8.87
					V14.829z M6.752,8.651c-0.221,0-0.441-0.11-0.574-0.287C6.045,8.188,6.023,7.967,6.09,7.746l1.125-3.817
					c0.132-0.441,0.463-0.463,0.552-0.463c0.199,0,0.441,0.132,0.53,0.485l1.059,3.795c0.066,0.221,0.022,0.441-0.11,0.618
					C9.112,8.541,8.914,8.629,8.693,8.629L6.752,8.651z M7.744,5.474L7.082,7.724h1.28L7.744,5.474z"/>
			</g>
		</g>
	</g>
</g>
</svg>
