<?xml version="1.0" encoding="utf-8"?>
<!-- Generator: Adobe Illustrator 19.2.1, SVG Export Plug-In . SVG Version: 6.00 Build 0)  -->
<svg version="1.1" id="Layer_1" xmlns="http://www.w3.org/2000/svg" xmlns:xlink="http://www.w3.org/1999/xlink" x="0px" y="0px"
	 viewBox="0 0 16 16" style="enable-background:new 0 0 16 16;" xml:space="preserve">
<g id="XMLID_1_">
	<g id="XMLID_40_">
		<g id="XMLID_41_">
			<path id="XMLID_42_" d="M10.809,2.563c0.053,0.171,0.139,0.438,0.192,0.609l3.055,9.645c0.053,0.171,0.246,0.31,0.417,0.31h1.207
				c0.171,0,0.32,0.15,0.32,0.32v1.976c0,0.171-0.15,0.32-0.32,0.32H8.705c-0.171,0-0.32-0.15-0.32-0.32v-1.976
				c0-0.171,0.15-0.32,0.32-0.32h1.346c0.182,0,0.278-0.139,0.235-0.31l-0.566-2.04c-0.043-0.171-0.224-0.31-0.406-0.31H5.939
				c-0.182,0-0.363,0.139-0.417,0.31l-0.63,2.051c-0.053,0.171,0.053,0.31,0.224,0.31h1.431c0.171,0,0.32,0.15,0.32,0.32v1.965
				c0,0.171-0.15,0.32-0.32,0.32H0.32c-0.171,0-0.32-0.15-0.32-0.32v-1.976c0-0.171,0.15-0.32,0.32-0.32h1.282
				c0.182,0,0.363-0.139,0.406-0.31l2.841-9.645c0.053-0.171-0.053-0.31-0.235-0.31H3.194c-0.182,0-0.32-0.15-0.32-0.32V0.577
				c0-0.171,0.139-0.32,0.32-0.32h6.547c0.171,0,0.363,0.139,0.417,0.31L10.809,2.563z M8.684,8.192c0.171,0,0.278-0.139,0.235-0.31
				L7.797,3.834c-0.043-0.171-0.128-0.171-0.182,0L6.409,7.893c-0.053,0.171,0.053,0.31,0.224,0.31L8.684,8.192L8.684,8.192z"/>
		</g>
	</g>
</g>
</svg>
