<?xml version="1.0" encoding="utf-8"?>
<!-- Generator: Adobe Illustrator 19.2.1, SVG Export Plug-In . SVG Version: 6.00 Build 0)  -->
<svg version="1.1" id="Layer_1" xmlns="http://www.w3.org/2000/svg" xmlns:xlink="http://www.w3.org/1999/xlink" x="0px" y="0px"
	 viewBox="0 0 16 16" style="enable-background:new 0 0 16 16;" xml:space="preserve">
<path d="M15.273,8.727h-0.8c-0.364,3.055-2.764,5.455-5.745,5.745v0.8C8.727,15.709,8.436,16,8,16s-0.727-0.291-0.727-0.727v-0.8
	c-3.055-0.364-5.455-2.764-5.745-5.745h-0.8C0.291,8.727,0,8.436,0,8s0.291-0.727,0.727-0.727h0.8
	c0.364-3.055,2.764-5.455,5.745-5.745v-0.8C7.273,0.291,7.564,0,8,0s0.727,0.291,0.727,0.727v0.8
	c3.055,0.364,5.455,2.764,5.745,5.745h0.8C15.709,7.273,16,7.564,16,8S15.709,8.727,15.273,8.727z M8.727,2.982v0.655
	c0,0.436-0.291,0.727-0.727,0.727S7.273,4.073,7.273,3.636V2.982c-2.255,0.364-4,2.036-4.291,4.291h0.655
	c0.436,0,0.727,0.291,0.727,0.727S4.073,8.727,3.636,8.727H2.982c0.364,2.255,2.036,3.927,4.291,4.291v-0.655
	c0-0.436,0.291-0.727,0.727-0.727s0.727,0.291,0.727,0.727v0.655c2.255-0.364,3.927-2.036,4.291-4.291h-0.655
	c-0.436,0-0.727-0.291-0.727-0.727s0.291-0.727,0.727-0.727h0.655C12.727,5.018,10.982,3.345,8.727,2.982L8.727,2.982z M8,9.091
	C7.418,9.091,6.909,8.582,6.909,8S7.418,6.909,8,6.909S9.091,7.418,9.091,8S8.582,9.091,8,9.091z"/>
</svg>
