<?xml version="1.0" encoding="utf-8"?>
<!-- Generator: Adobe Illustrator 19.2.1, SVG Export Plug-In . SVG Version: 6.00 Build 0)  -->
<svg version="1.1" id="Layer_1" xmlns="http://www.w3.org/2000/svg" xmlns:xlink="http://www.w3.org/1999/xlink" x="0px" y="0px"
	 viewBox="0 0 16.2 16" style="enable-background:new 0 0 16.2 16;" xml:space="preserve">
<g>
	<path d="M15.9,11.4h-0.7V3.3c0-0.7-0.6-1.3-1.3-1.3H2.4C1.7,2,1.1,2.6,1.1,3.3v8.1H0.4c-0.2,0-0.4,0.2-0.4,0.4v0.7
		C0,13.3,0.6,14,1.4,14h13.4c0.8,0,1.4-0.7,1.4-1.4v-0.7C16.2,11.6,16.1,11.4,15.9,11.4z M1.8,3.5V3.3C1.8,3,2,2.8,2.3,2.8h11.6
		c0.3,0,0.5,0.2,0.5,0.5v0.2H1.8z M1.8,11.4V4.2h12.7v7.2H1.8z M15.6,12.2v0.4c0,0.4-0.3,0.7-0.7,0.7H1.4c-0.4,0-0.7-0.3-0.7-0.7
		v-0.4H15.6z"/>
</g>
<path d="M10.5,5.1c-0.1,0-0.2,0.1-0.3,0.2L7.4,9.6L6,8.3c-0.1-0.1-0.4-0.1-0.5,0c-0.1,0.1-0.1,0.4,0,0.5l0,0l1.8,1.6
	c0.1,0.1,0.4,0.1,0.5,0c0,0,3-4.8,3-4.8c0.1-0.2,0.1-0.4-0.1-0.5C10.7,5.1,10.6,5.1,10.5,5.1L10.5,5.1z"/>
</svg>
