<?xml version="1.0" encoding="utf-8"?>
<!-- Generator: Adobe Illustrator 19.2.1, SVG Export Plug-In . SVG Version: 6.00 Build 0)  -->
<svg version="1.1" id="Layer_1" xmlns="http://www.w3.org/2000/svg" xmlns:xlink="http://www.w3.org/1999/xlink" x="0px" y="0px"
	 viewBox="0 0 16 16" style="enable-background:new 0 0 16 16;" xml:space="preserve">
<g id="bag-outlined">
	<g>
		<path d="M12.327,16H3.673c-0.858,0-1.555-0.698-1.555-1.555V5.79c0-0.858,0.698-1.555,1.555-1.555h8.655
			c0.857,0,1.555,0.698,1.555,1.555v8.655C13.883,15.302,13.185,16,12.327,16z M3.673,5.238c-0.304,0-0.552,0.247-0.552,0.552v8.655
			c0,0.304,0.247,0.551,0.552,0.551h8.655c0.304,0,0.551-0.247,0.551-0.551V5.79c0-0.304-0.247-0.552-0.551-0.552H3.673z"/>
		<path d="M11.325,3.325h-1.004c0-1.28-1.041-2.321-2.321-2.321S5.679,2.045,5.679,3.325H4.676C4.676,1.491,6.167,0,8,0
			S11.325,1.492,11.325,3.325z"/>
	</g>
</g>
</svg>
