<?xml version="1.0" encoding="utf-8"?>
<!-- Generator: Adobe Illustrator 19.2.1, SVG Export Plug-In . SVG Version: 6.00 Build 0)  -->
<svg version="1.1" id="Layer_1" xmlns="http://www.w3.org/2000/svg" xmlns:xlink="http://www.w3.org/1999/xlink" x="0px" y="0px"
	 viewBox="0 0 16 16" style="enable-background:new 0 0 16 16;" xml:space="preserve">
<g transform="translate(0,-952.36218)">
	<path d="M5.82,952.362c-1.507,0-2.706,1.289-2.724,2.87c0,0,0,0,0,0.018s0,0.018,0,0.036v10.17c0,0.018,0,0.054,0,0.073
		c0.036,1.562,1.217,2.833,2.724,2.833h4.359c1.507,0,2.706-1.308,2.724-2.869c0-0.018,0-0.018,0-0.036v-10.17
		c0-0.018,0-0.018,0-0.036c0,0,0,0,0-0.018c-0.018-1.562-1.217-2.87-2.724-2.87L5.82,952.362L5.82,952.362z M5.82,953.089h4.359
		c0.981,0,1.816,0.763,1.961,1.816h-8.3C4.004,953.851,4.839,953.089,5.82,953.089z M7.999,953.452
		c-0.309,0-0.545,0.236-0.545,0.545s0.236,0.545,0.545,0.545c0.309,0,0.545-0.236,0.545-0.545S8.309,953.452,7.999,953.452z
		 M3.822,955.631h8.354v9.444H3.822V955.631z M10.343,957.611c-0.127,0-0.236,0.073-0.291,0.182l-2.724,4.359l-1.453-1.326
		c-0.145-0.127-0.381-0.127-0.509,0.018c-0.127,0.145-0.127,0.381,0.018,0.508l0,0l1.762,1.616c0.145,0.127,0.381,0.127,0.509-0.018
		c0.018-0.018,0.018-0.036,0.036-0.055l2.942-4.722c0.109-0.163,0.054-0.4-0.109-0.509
		C10.505,957.629,10.414,957.611,10.343,957.611L10.343,957.611z M3.858,965.801h8.3c-0.163,1.053-0.981,1.816-1.961,1.816H5.839
		C4.839,967.618,4.004,966.837,3.858,965.801z M6.51,966.346c-0.2,0.018-0.363,0.182-0.345,0.381s0.182,0.363,0.381,0.345h2.906
		c0.2,0,0.363-0.163,0.363-0.363s-0.163-0.363-0.363-0.363c0,0,0,0-0.018,0H6.528C6.528,966.346,6.528,966.346,6.51,966.346z"/>
</g>
</svg>
