<?xml version="1.0" encoding="utf-8"?>
<!-- Generator: Adobe Illustrator 19.2.1, SVG Export Plug-In . SVG Version: 6.00 Build 0)  -->
<svg version="1.1" id="Layer_1" xmlns="http://www.w3.org/2000/svg" xmlns:xlink="http://www.w3.org/1999/xlink" x="0px" y="0px"
	 viewBox="0 0 16.8 16" style="enable-background:new 0 0 16.8 16;" xml:space="preserve">
<g>
	<path d="M9.8,9l-1-3.4H2.1L1,9l0,0c-0.4,0.1-0.7,0.5-0.7,1v2.7c0,0.6,0.4,1,1,1h0.3v0.6c0,0.4,0.3,0.7,0.6,0.7h1.3
		c0.4,0,0.6-0.3,0.6-0.7v-0.6h2.4v0.6c0,0.4,0.3,0.7,0.6,0.7h1.3c0.4,0,0.6-0.3,0.6-0.7v-0.6h0.3c0.5,0,1-0.5,1-1l0-2.7
		C10.4,9.6,10.2,9.2,9.8,9z M8.6,13.8v0.6H7.3v-0.6H8.6z M3.5,14.3H2.3v-0.6h1.3L3.5,14.3z M8.3,6.4L9.1,9H1.7l0.9-2.7H8.3z M9.8,10
		v2.7c0,0.1-0.2,0.3-0.3,0.3H1.3C1.1,13,1,12.8,1,12.7V10c0-0.2,0.1-0.3,0.3-0.3h8.3C9.7,9.7,9.8,9.8,9.8,10z"/>
	<path d="M2.9,10.3c-0.5,0-1,0.5-1,1c0,0.6,0.4,1,1,1s1-0.5,1-1C3.9,10.8,3.4,10.3,2.9,10.3z M2.9,11.7c-0.2,0-0.3-0.1-0.3-0.3
		S2.7,11,2.9,11s0.3,0.2,0.3,0.3C3.2,11.5,3.1,11.7,2.9,11.7z"/>
	<path d="M7.9,10.3c-0.5,0-1,0.5-1,1c0,0.6,0.4,1,1,1s1-0.5,1-1c0-0.3-0.1-0.5-0.3-0.7C8.4,10.4,8.2,10.3,7.9,10.3z M8.2,11.4
		c0,0.2-0.1,0.3-0.3,0.3c-0.2,0-0.3-0.1-0.3-0.3S7.7,11,7.9,11C8.1,11,8.2,11.2,8.2,11.4z"/>
	<rect x="4.5" y="11.6" width="1.8" height="0.7"/>
	<path d="M11.4,14.5v-0.8h2.8v-0.6h-2.1v-1.9h1.1V7.7h-1.1V6.2H15V5.6h-4.2l1.5-4.1h3.4V0.9h-3.8L10,6l0,0.1h1.5v6.9h-0.7v2.1h5.7
		v-0.6L11.4,14.5z M12.1,10.6V8.3h0.5v2.3H12.1z"/>
</g>
</svg>
