<?xml version="1.0" encoding="utf-8"?>
<!-- Generator: Adobe Illustrator 19.2.1, SVG Export Plug-In . SVG Version: 6.00 Build 0)  -->
<svg version="1.1" id="Layer_1" xmlns="http://www.w3.org/2000/svg" xmlns:xlink="http://www.w3.org/1999/xlink" x="0px" y="0px"
	 viewBox="0 0 16 16" style="enable-background:new 0 0 16 16;" xml:space="preserve">
<g>
	<path d="M12.987,14.977H3.014c-1.251,0-2.27-1.018-2.27-2.27v-1.383c0-0.231,0.187-0.418,0.418-0.418h13.675
		c0.231,0,0.418,0.187,0.418,0.418v1.383C15.256,13.959,14.238,14.977,12.987,14.977z M1.581,11.742v0.965
		c0,0.79,0.643,1.433,1.433,1.433h9.971c0.79,0,1.433-0.643,1.433-1.433v-0.965H1.581z"/>
	<g>
		<path d="M11.771,10.133c-1.085,0-1.649-0.36-2.145-0.677C9.183,9.173,8.801,8.929,8.001,8.929c-0.816,0-1.202,0.247-1.65,0.532
			c-0.493,0.315-1.052,0.672-2.12,0.672c-1.085,0-1.649-0.36-2.145-0.677C1.642,9.173,1.26,8.929,0.46,8.929
			C0.206,8.929,0,8.723,0,8.469s0.206-0.46,0.46-0.46c1.069,0,1.627,0.357,2.12,0.672c0.447,0.285,0.833,0.532,1.65,0.532
			c0.8,0,1.182-0.244,1.624-0.527c0.497-0.318,1.061-0.678,2.146-0.678c1.069,0,1.627,0.357,2.12,0.672
			c0.447,0.286,0.833,0.532,1.65,0.532c0.799,0,1.182-0.244,1.624-0.527c0.497-0.318,1.06-0.677,2.145-0.677
			c0.254,0,0.46,0.206,0.46,0.46s-0.206,0.46-0.46,0.46c-0.816,0-1.202,0.247-1.65,0.532C13.398,9.776,12.839,10.133,11.771,10.133z
			"/>
	</g>
	<g>
		<path d="M14.515,7.236H1.486c-0.384,0-0.708-0.324-0.708-0.708V6.327c0-2.924,3.23-5.304,7.199-5.304
			c3.946,0,7.196,2.376,7.244,5.297v0.208C15.223,6.912,14.898,7.236,14.515,7.236z M1.615,6.4h12.77V6.327
			c-0.041-2.46-2.915-4.468-6.407-4.468c-3.508,0-6.363,2.004-6.363,4.468C1.615,6.327,1.615,6.4,1.615,6.4z"/>
	</g>
</g>
</svg>
