<?xml version="1.0" encoding="utf-8"?>
<!-- Generator: Adobe Illustrator 19.2.1, SVG Export Plug-In . SVG Version: 6.00 Build 0)  -->
<svg version="1.1" id="Layer_1" xmlns="http://www.w3.org/2000/svg" xmlns:xlink="http://www.w3.org/1999/xlink" x="0px" y="0px"
	 viewBox="0 0 16 16" style="enable-background:new 0 0 16 16;" xml:space="preserve">
<g>
	<path d="M13,15H3c-1.3,0-2.3-1-2.3-2.3v-1.4c0-0.2,0.2-0.4,0.4-0.4h13.7c0.2,0,0.4,0.2,0.4,0.4v1.4C15.3,14,14.2,15,13,15z"/>
	<g>
		<path d="M11.8,10.1c-1.1,0-1.6-0.4-2.1-0.7C9.2,9.2,8.8,8.9,8,8.9c-0.8,0-1.2,0.2-1.7,0.5c-0.5,0.3-1.1,0.7-2.1,0.7
			c-1.1,0-1.6-0.4-2.1-0.7C1.6,9.2,1.3,8.9,0.5,8.9C0.2,8.9,0,8.7,0,8.5S0.2,8,0.5,8c1.1,0,1.6,0.4,2.1,0.7C3,9,3.4,9.2,4.2,9.2
			C5,9.2,5.4,9,5.9,8.7C6.4,8.4,6.9,8,8,8c1.1,0,1.6,0.4,2.1,0.7C10.6,9,11,9.2,11.8,9.2c0.8,0,1.2-0.2,1.6-0.5
			C13.9,8.4,14.5,8,15.5,8C15.8,8,16,8.2,16,8.5s-0.2,0.5-0.5,0.5c-0.8,0-1.2,0.2-1.6,0.5C13.4,9.8,12.8,10.1,11.8,10.1z"/>
	</g>
	<g>
		<path d="M14.5,7.2h-13c-0.4,0-0.7-0.3-0.7-0.7V6.3C0.8,3.4,4,1,8,1c3.9,0,7.2,2.4,7.2,5.3v0.2C15.2,6.9,14.9,7.2,14.5,7.2z"/>
	</g>
</g>
</svg>
