<?xml version="1.0" encoding="utf-8"?>
<!-- Generator: Adobe Illustrator 19.2.1, SVG Export Plug-In . SVG Version: 6.00 Build 0)  -->
<svg version="1.1" id="Layer_1" xmlns="http://www.w3.org/2000/svg" xmlns:xlink="http://www.w3.org/1999/xlink" x="0px" y="0px"
	 viewBox="0 0 16 16" style="enable-background:new 0 0 16 16;" xml:space="preserve">
<path d="M12.365,2.225H8.283V0.003H7.694v2.221H3.636c-0.627,0-1.117,0.49-1.117,1.116v1.152c0,0.507,0.325,0.921,0.781,1.061
	L4.9,15.65c0.032,0.2,0.204,0.347,0.406,0.347h5.364c0.202,0,0.375-0.147,0.406-0.347l1.599-10.092c0.427,0,0.805-0.463,0.805-0.655
	c0-0.254,0-1.563,0-1.563C13.483,2.715,12.991,2.225,12.365,2.225z M3.342,3.341c0-0.173,0.121-0.294,0.294-0.294h8.728
	c0.173,0,0.294,0.121,0.294,0.294v0.74l-0.024,0.412c0,0.173-0.121,0.294-0.294,0.294H3.636c-0.173,0-0.294-0.121-0.294-0.294
	C3.342,4.493,3.342,3.341,3.342,3.341z M10.319,15.175h-4.66L4.142,5.609h7.694L10.319,15.175z"/>
</svg>
