<?xml version="1.0" encoding="utf-8"?>
<!-- Generator: Adobe Illustrator 19.2.1, SVG Export Plug-In . SVG Version: 6.00 Build 0)  -->
<svg version="1.1" id="Layer_1" xmlns="http://www.w3.org/2000/svg" xmlns:xlink="http://www.w3.org/1999/xlink" x="0px" y="0px"
	 viewBox="0 0 16 16" style="enable-background:new 0 0 16 16;" xml:space="preserve">
<path d="M12.359,2.23H8.294V0H7.706v2.23H3.641c-0.616,0-1.117,0.501-1.117,1.117v1.159c0,0.503,0.337,0.925,0.796,1.064l1.6,10.083
	C4.952,15.853,5.124,16,5.326,16h5.347c0.202,0,0.375-0.147,0.406-0.347l1.6-10.083c0.459-0.139,0.796-0.561,0.796-1.064V3.347
	C13.476,2.731,12.975,2.23,12.359,2.23z M3.347,3.347c0-0.162,0.132-0.294,0.294-0.294h8.718c0.162,0,0.294,0.132,0.294,0.294v1.159
	c0,0.162-0.132,0.294-0.294,0.294H3.641c-0.162,0-0.294-0.132-0.294-0.294C3.347,4.506,3.347,3.347,3.347,3.347z"/>
</svg>
