<?xml version="1.0" encoding="utf-8"?>
<!-- Generator: Adobe Illustrator 19.2.1, SVG Export Plug-In . SVG Version: 6.00 Build 0)  -->
<svg version="1.1" id="Layer_1" xmlns="http://www.w3.org/2000/svg" xmlns:xlink="http://www.w3.org/1999/xlink" x="0px" y="0px"
	 viewBox="0 0 16 16" style="enable-background:new 0 0 16 16;" xml:space="preserve">
<style type="text/css">
	.st0{fill:#020000;}
</style>
<g>
	<path class="st0" d="M2.8,14.827C2.8,15.484,3.333,16,3.991,16h8.018c0.658,0,1.191-0.516,1.191-1.173l0.462-9.671H2.356
		L2.8,14.827z M10.125,7.093c0-0.338,0.196-0.604,0.533-0.604s0.533,0.267,0.533,0.604v6.685c0,0.338-0.196,0.604-0.533,0.604
		s-0.533-0.267-0.533-0.604V7.093z M7.458,7.093c0-0.338,0.196-0.604,0.533-0.604c0.338,0,0.533,0.267,0.533,0.604v6.685
		c0,0.338-0.196,0.604-0.533,0.604c-0.338,0-0.533-0.267-0.533-0.604V7.093z M4.791,7.093c0-0.338,0.196-0.604,0.533-0.604
		c0.338,0,0.533,0.267,0.533,0.604v6.685c0,0.338-0.196,0.604-0.533,0.604c-0.338,0-0.533-0.267-0.533-0.604V7.093z"/>
	<path class="st0" d="M13.875,2.133h-3.218V0.551c0-0.32-0.16-0.551-0.498-0.551H5.858C5.52,0,5.324,0.231,5.324,0.551v1.582H2.142
		c-0.338,0-0.551,0.249-0.551,0.587v0.676c0,0.338,0.213,0.693,0.551,0.693h11.751c0.338,0,0.515-0.374,0.515-0.693V2.72
		C14.391,2.382,14.213,2.133,13.875,2.133 M9.591,2.133h-3.2V1.067h3.2V2.133z"/>
</g>
</svg>
